<?xml version="1.0" encoding="utf-8"?>
<!-- Generator: Adobe Illustrator 16.0.0, SVG Export Plug-In . SVG Version: 6.00 Build 0)  -->
<!DOCTYPE svg PUBLIC "-//W3C//DTD SVG 1.1//EN" "http://www.w3.org/Graphics/SVG/1.1/DTD/svg11.dtd">
<svg version="1.1" id="Calque_1" xmlns="http://www.w3.org/2000/svg" xmlns:xlink="http://www.w3.org/1999/xlink" x="0px" y="0px"
	 width="394.967px" height="89.667px" viewBox="0 -6.667 394.967 89.667" enable-background="new 0 -6.667 394.967 89.667"
	 xml:space="preserve">
<g>
	<path fill="#1D1D1B" d="M129.859,24.227h-13.345l-2.208,6.384h-7.057l12.049-33.554h7.825l12.049,33.554h-7.104L129.859,24.227z
		 M123.186,4.834l-4.849,14.017h9.697L123.186,4.834z"/>
	<path fill="#1D1D1B" d="M165.234-3.327c7.44,0,13.488,3.984,15.745,10.849h-7.729c-1.584-3.216-4.464-4.801-8.065-4.801
		c-5.856,0-10.033,4.272-10.033,11.089c0,6.769,4.176,11.089,10.033,11.089c3.601,0,6.48-1.584,8.065-4.849h7.729
		c-2.257,6.913-8.305,10.849-15.745,10.849c-9.649,0-16.994-7.057-16.994-17.088C148.24,3.778,155.585-3.327,165.234-3.327z"/>
	<path fill="#1D1D1B" d="M192.927-2.895h6.72v33.506h-6.72V-2.895z"/>
	<path fill="#1D1D1B" d="M241.842,13.906c0,10.129-6.96,16.706-17.665,16.706h-11.713V-2.895h11.713
		C234.882-2.895,241.842,3.73,241.842,13.906z M223.937,24.9c7.058,0,11.041-4.032,11.041-10.993c0-6.96-3.983-11.137-11.041-11.137
		h-4.752V24.9H223.937z"/>
	<path fill="#1D1D1B" d="M273.616,24.227h-13.346l-2.207,6.384h-7.058l12.05-33.554h7.823l12.05,33.554h-7.104L273.616,24.227z
		 M266.944,4.834l-4.848,14.017h9.695L266.944,4.834z"/>
	<path fill="#1D1D1B" d="M306.207-2.895c8.065,0,12.097,4.656,12.097,10.273c0,4.08-2.256,8.208-7.633,9.649l8.018,13.584h-7.776
		l-7.394-13.056h-3.168v13.056h-6.721V-2.895H306.207z M305.968,2.674h-5.617v9.841h5.617c3.744,0,5.424-1.968,5.424-4.992
		C311.392,4.546,309.712,2.674,305.968,2.674z"/>
	<path fill="#1D1D1B" d="M328.813-2.895h24.578v5.424h-8.928v28.083h-6.721V2.53h-8.93V-2.895L328.813-2.895z"/>
	<path fill="#1D1D1B" d="M376.046,30.947c-6.959,0-12.336-3.647-12.432-9.984h7.199c0.192,2.688,1.969,4.464,5.09,4.464
		c3.168,0,5.039-1.68,5.039-4.08c0-7.249-17.281-2.88-17.232-15.025c0-6.048,4.896-9.697,11.809-9.697
		c6.865,0,11.568,3.504,12.002,9.553h-7.393c-0.145-2.208-1.922-3.937-4.801-3.984c-2.641-0.096-4.609,1.2-4.609,3.937
		c0,6.72,17.186,2.976,17.186,14.785C387.903,26.196,383.679,30.947,376.046,30.947z"/>
</g>
<g>
	<path fill="#9B9B9B" d="M107.238,61.007h6.746v1.533h-4.866v3.382h3.793v1.534h-3.793v5.015h-1.88V61.007z"/>
	<path fill="#9B9B9B" d="M122.515,61.007c2.722,0,4.058,1.565,4.058,3.431c0,1.354-0.726,2.805-2.655,3.283l2.837,4.75h-2.243
		l-2.639-4.586h-1.435v4.586h-1.88V61.007H122.515z M122.515,62.54h-2.078v3.845h2.078c1.468,0,2.128-0.81,2.128-1.947
		C124.643,63.281,123.984,62.54,122.515,62.54z"/>
	<path fill="#9B9B9B" d="M138.14,62.525h-4.454v3.363h3.958v1.534h-3.958v3.515h4.454v1.533h-6.334V60.99h6.334V62.525z"/>
	<path fill="#9B9B9B" d="M149.608,62.525h-4.454v3.363h3.958v1.534h-3.958v3.515h4.454v1.533h-6.334V60.99h6.334V62.525z"/>
	<path fill="#9B9B9B" d="M156.622,61.007v9.945h3.876v1.519h-5.756V61.007H156.622z"/>
	<path fill="#9B9B9B" d="M171.8,70.128H167l-0.825,2.343h-1.963l4.107-11.48h2.177l4.107,11.48h-1.979L171.8,70.128z
		 M169.408,63.268l-1.88,5.326h3.744L169.408,63.268z"/>
	<path fill="#9B9B9B" d="M188.629,60.99v11.48h-1.88l-5.658-8.562v8.562h-1.881V60.99h1.881l5.658,8.545V60.99H188.629z"/>
	<path fill="#9B9B9B" d="M199.157,60.859c2.392,0,4.453,1.203,5.328,3.447h-2.26c-0.611-1.222-1.699-1.8-3.068-1.8
		c-2.277,0-3.926,1.617-3.926,4.207c0,2.591,1.647,4.224,3.926,4.224c1.369,0,2.457-0.578,3.068-1.799h2.26
		c-0.875,2.243-2.938,3.432-5.328,3.432c-3.233,0-5.855-2.408-5.855-5.855C193.302,63.281,195.924,60.859,199.157,60.859z"/>
	<path fill="#9B9B9B" d="M215.838,62.525h-4.454v3.363h3.959v1.534h-3.959v3.515h4.454v1.533h-6.334V60.99h6.334V62.525z"/>
	<path fill="#9B9B9B" d="M231.745,60.165c2.391,0,3.693,1.386,3.693,3.135c0,1.435-0.906,2.408-1.847,2.722v0.065
		c1.253,0.379,2.062,1.418,2.062,3.084c0,1.914-1.353,3.365-3.859,3.365c-2.275,0-4.041-1.188-4.156-3.548h1.814
		c0.082,1.123,0.906,1.98,2.326,1.98c1.4,0,2.094-0.857,2.094-1.98c0-1.582-1.021-2.127-2.984-2.127h-0.43v-1.551h0.445
		c1.699-0.017,2.738-0.512,2.738-1.797c0-1.039-0.677-1.732-1.963-1.732c-1.32,0-1.931,0.791-2.046,1.634h-1.832
		C227.935,61.337,229.551,60.165,231.745,60.165z"/>
	<path fill="#9B9B9B" d="M250.536,66.779c0,3.531-2.408,5.691-6.086,5.691h-3.744V61.007h3.744
		C248.128,61.007,250.536,63.234,250.536,66.779z M244.45,70.938c2.705,0,4.156-1.551,4.156-4.158c0-2.621-1.451-4.238-4.156-4.238
		h-1.864v8.396H244.45z"/>
	<path fill="#9B9B9B" d="M269.249,70.128h-4.801l-0.824,2.343h-1.963l4.107-11.48h2.176l4.107,11.48h-1.979L269.249,70.128z
		 M266.856,63.268l-1.879,5.326h3.744L266.856,63.268z"/>
	<path fill="#9B9B9B" d="M280.618,61.007c2.721,0,4.057,1.565,4.057,3.431c0,1.354-0.725,2.805-2.654,3.283l2.836,4.75h-2.241
		l-2.64-4.586h-1.436v4.586h-1.881V61.007H280.618z M280.618,62.54h-2.078v3.845h2.078c1.468,0,2.127-0.81,2.127-1.947
		C282.745,63.281,282.086,62.54,280.618,62.54z"/>
	<path fill="#9B9B9B" d="M289.313,61.007h8v1.533h-3.051v9.931h-1.881V62.54h-3.068V61.007z"/>
	<path fill="#9B9B9B" d="M302.036,61.007h1.881v11.464h-1.881V61.007z"/>
	<path fill="#9B9B9B" d="M312.991,72.585c-2.293,0-4.059-1.253-4.059-3.28h2.012c0.084,0.938,0.742,1.697,2.047,1.697
		c1.318,0,2.061-0.709,2.061-1.684c0-2.771-6.086-0.973-6.086-5.194c0-2.013,1.6-3.267,3.942-3.267c2.194,0,3.743,1.154,3.909,3.117
		h-2.078c-0.066-0.774-0.742-1.483-1.93-1.518c-1.09-0.033-1.931,0.494-1.931,1.6c0,2.59,6.069,0.975,6.069,5.164
		C316.949,70.938,315.548,72.585,312.991,72.585z"/>
	<path fill="#9B9B9B" d="M321.407,61.007h8v1.533h-3.053v9.931h-1.879V62.54h-3.068V61.007z"/>
</g>
<g id="CYAN_x2F_VERT_2_">
	<path d="M4.654,71.716l0.734,0.642l1.134,0.09c0,0,25.608-1.098,38.412-1.674c-13.355,0.031-40.242,0.115-40.242,0.115
		L4.654,71.716z"/>
	<polygon points="43.569,-3.346 43.298,-3.698 42.351,-3.62 42.007,-3.277 19.864,38.064 	"/>
	<polygon points="68.622,36.914 86.237,68.777 86.848,68.559 87.627,67.646 87.716,67.036 	"/>
	<line fill="none" x1="42.237" y1="-3.287" x2="42.007" y2="-3.277"/>
	<path d="M43.2-3.33"/>
</g>
<g id="ORANGE_x2F_JAUNE_2_">
	<polygon points="68.622,36.914 47.154,-3.278 46.821,-3.585 45.737,-3.698 45.435,-3.355 	"/>
	<polygon points="19.864,38.064 1.489,67.063 1.58,67.824 2.487,68.671 3.174,68.869 	"/>
	<path d="M44.934,70.773c12.794,0.57,37.751,1.651,37.751,1.651l0.826-0.097l1.168-1.131l-0.203-0.586
		C84.478,70.613,58.328,70.74,44.934,70.773z"/>
</g>
<g>
	<path fill="#444444" d="M111.417,47.365c-2.363,0-4.182-1.292-4.182-3.383h2.074c0.085,0.969,0.765,1.751,2.108,1.751
		c1.36,0,2.125-0.731,2.125-1.733c0-2.856-6.272-1.004-6.272-5.355c0-2.073,1.649-3.365,4.063-3.365
		c2.261,0,3.858,1.189,4.028,3.213h-2.142c-0.068-0.799-0.765-1.53-1.989-1.564c-1.122-0.033-1.989,0.51-1.989,1.649
		c0,2.669,6.255,1.003,6.255,5.32C115.496,45.665,114.051,47.365,111.417,47.365z"/>
	<path fill="#444444" d="M127.77,47.365c-3.332,0-6.035-2.499-6.035-6.052c0-3.536,2.703-6.034,6.035-6.034
		c3.365,0,6.034,2.498,6.034,6.034C133.804,44.866,131.135,47.365,127.77,47.365z M127.77,45.682c2.346,0,4.045-1.699,4.045-4.368
		s-1.7-4.335-4.045-4.335c-2.346,0-4.046,1.666-4.046,4.335S125.424,45.682,127.77,45.682z"/>
	<path fill="#444444" d="M139.688,35.432h8.244v1.582h-3.145v10.232h-1.938V37.014h-3.162V35.432z"/>
	<path fill="#444444" d="M153.866,35.432h8.244v1.582h-3.145v10.232h-1.938V37.014h-3.162V35.432z"/>
	<path fill="#444444" d="M168.655,35.432h1.938v11.814h-1.938V35.432z"/>
	<path fill="#444444" d="M179.671,35.432v10.25h3.994v1.564h-5.932V35.432H179.671z"/>
	<path fill="#444444" d="M196.398,36.996h-4.589v3.468h4.08v1.581h-4.08v3.62h4.589v1.581h-6.527V35.415h6.527V36.996z"/>
	<path fill="#444444" d="M216.866,35.432h1.955v8.517c0,2.142-1.445,3.417-3.484,3.417c-2.04,0-3.484-1.275-3.484-3.417h1.954
		c0.017,0.986,0.493,1.7,1.53,1.7s1.529-0.714,1.529-1.7V35.432z"/>
	<path fill="#444444" d="M233.084,36.996h-4.589v3.468h4.079v1.581h-4.079v3.62h4.589v1.581h-6.527V35.415h6.527V36.996z"/>
	<path fill="#444444" d="M247.177,44.832h-4.947l-0.85,2.414h-2.022l4.232-11.831h2.243l4.232,11.831h-2.039L247.177,44.832z
		 M244.712,37.762l-1.938,5.49h3.857L244.712,37.762z"/>
	<path fill="#444444" d="M266.199,35.415v11.831h-1.938l-5.83-8.822v8.822h-1.938V35.415h1.938l5.83,8.806v-8.806H266.199z"/>
	<path fill="#444444" d="M274.122,47.365c-0.697,0-1.242-0.544-1.242-1.241c0-0.696,0.545-1.241,1.242-1.241
		c0.68,0,1.223,0.545,1.223,1.241C275.345,46.821,274.802,47.365,274.122,47.365z"/>
	<path fill="#444444" d="M286.753,47.246h-4.727V35.432h4.506c2.498,0,3.824,1.377,3.824,3.043c0,1.428-0.867,2.295-2.006,2.703
		c1.258,0.221,2.277,1.479,2.277,2.89C290.628,45.869,289.167,47.246,286.753,47.246z M286.362,37.014h-2.396v3.383h2.396
		c1.258,0,2.021-0.596,2.021-1.684C288.384,37.643,287.62,37.014,286.362,37.014z M286.515,41.977h-2.549v3.688h2.617
		c1.309,0,2.107-0.663,2.107-1.802C288.69,42.69,287.808,41.977,286.515,41.977z"/>
	<path fill="#444444" d="M304.45,44.832h-4.947l-0.85,2.414h-2.023l4.232-11.831h2.244l4.232,11.831H305.3L304.45,44.832z
		 M301.985,37.762l-1.939,5.49h3.859L301.985,37.762z"/>
	<path fill="#444444" d="M317.845,42.453h-2.141v4.793h-1.939V35.432h4.08c2.805,0,4.182,1.599,4.182,3.52
		C322.026,40.634,320.921,42.453,317.845,42.453z M317.845,40.871c1.514,0,2.193-0.73,2.193-1.92c0-1.225-0.68-1.938-2.193-1.938
		h-2.141v3.857H317.845z"/>
	<path fill="#444444" d="M327.858,35.432h8.244v1.582h-3.145v10.232h-1.938V37.014h-3.162V35.432z"/>
	<path fill="#444444" d="M342.647,35.432h1.939v11.814h-1.939V35.432z"/>
	<path fill="#444444" d="M355.618,47.365c-2.363,0-4.182-1.292-4.182-3.383h2.074c0.084,0.969,0.764,1.751,2.107,1.751
		c1.359,0,2.125-0.731,2.125-1.733c0-2.856-6.273-1.004-6.273-5.355c0-2.073,1.65-3.365,4.063-3.365
		c2.262,0,3.859,1.189,4.029,3.213h-2.141c-0.068-0.799-0.766-1.53-1.99-1.564c-1.121-0.033-1.988,0.51-1.988,1.649
		c0,2.669,6.256,1.003,6.256,5.32C359.698,45.665,358.253,47.365,355.618,47.365z"/>
	<path fill="#444444" d="M365.972,35.432h8.244v1.582h-3.145v10.232h-1.938V37.014h-3.162V35.432z"/>
	<path fill="#444444" d="M387.288,36.996H382.7v3.468h4.078v1.581H382.7v3.62h4.588v1.581h-6.527V35.415h6.527V36.996z"/>
</g>
</svg>
