<?xml version="1.0" encoding="utf-8"?>
<!-- Generator: Adobe Illustrator 16.0.0, SVG Export Plug-In . SVG Version: 6.00 Build 0)  -->
<!DOCTYPE svg PUBLIC "-//W3C//DTD SVG 1.1//EN" "http://www.w3.org/Graphics/SVG/1.1/DTD/svg11.dtd">
<svg version="1.1" id="Calque_1" xmlns="http://www.w3.org/2000/svg" xmlns:xlink="http://www.w3.org/1999/xlink" x="0px" y="0px"
	 width="394.967px" height="89.667px" viewBox="0 -6.667 394.967 89.667" enable-background="new 0 -6.667 394.967 89.667"
	 xml:space="preserve">
<g id="CYAN_x2F_VERT_2_">
	<path d="M4.654,71.716l0.734,0.642l1.134,0.09c0,0,25.608-1.098,38.412-1.674c-13.355,0.031-40.242,0.115-40.242,0.115
		L4.654,71.716z"/>
	<polygon points="43.569,-3.346 43.298,-3.698 42.351,-3.62 42.007,-3.277 19.864,38.064 	"/>
	<polygon points="68.622,36.914 86.237,68.777 86.848,68.559 87.627,67.646 87.716,67.036 	"/>
	<line fill="none" x1="42.237" y1="-3.287" x2="42.007" y2="-3.277"/>
	<path d="M43.2-3.33"/>
</g>
<g id="ORANGE_x2F_JAUNE_2_">
	<polygon points="68.622,36.914 47.154,-3.278 46.821,-3.585 45.737,-3.698 45.435,-3.355 	"/>
	<polygon points="19.864,38.064 1.489,67.063 1.58,67.824 2.487,68.671 3.174,68.869 	"/>
	<path d="M44.934,70.773c12.794,0.57,37.751,1.651,37.751,1.651l0.826-0.097l1.168-1.131l-0.203-0.586
		C84.478,70.613,58.328,70.74,44.934,70.773z"/>
</g>
</svg>